<svg xmlns="http://www.w3.org/2000/svg" xmlns:xlink="http://www.w3.org/1999/xlink" width="470" height="444" viewBox="0 0 470 444">
  <defs>
    <filter id="Subtraction_1" x="0" y="168.113" width="470" height="275.886" filterUnits="userSpaceOnUse">
      <feOffset dx="6" dy="8" input="SourceAlpha"/>
      <feGaussianBlur stdDeviation="9" result="blur"/>
      <feFlood flood-opacity="0.161"/>
      <feComposite operator="in" in2="blur"/>
      <feComposite in="SourceGraphic"/>
    </filter>
  </defs>
  <g id="Group_13" data-name="Group 13" transform="translate(-1355 -207)">
    <g id="Group_8" data-name="Group 8">
      <path id="Union_1" data-name="Union 1" d="M0,224V112H416V224ZM0,112,208,0,416,112Z" transform="translate(1376 280)" fill="#666"/>
      <rect id="Rectangle_9" data-name="Rectangle 9" width="338" height="313" rx="18" transform="translate(1415 207)" fill="#e8f6fd"/>
      <g transform="matrix(1, 0, 0, 1, 1355, 207)" filter="url(#Subtraction_1)">
        <path id="Subtraction_1-2" data-name="Subtraction 1" d="M391,256H25A24.979,24.979,0,0,1,0,231V34.113L189.315,134.129a40,40,0,0,0,37.37,0L416,34.113V231a24.979,24.979,0,0,1-25,25Z" transform="translate(21 153)" fill="#ffda64"/>
      </g>
      <path id="Intersection_1" data-name="Intersection 1" d="M265,221.886a25.045,25.045,0,0,1-20.944-11.339L383.683,75.907l45.633,24.108a40,40,0,0,0,37.37,0l45.633-24.108,139.626,134.64A24.972,24.972,0,0,1,631,221.886Z" transform="translate(1136 394.113)" fill="#ffc629"/>
    </g>
    <path id="Subtraction_8" data-name="Subtraction 8" d="M5,240.153H0V34.348L30,18.516V215.154a24.847,24.847,0,0,1-1.965,9.731,25.042,25.042,0,0,1-2.092,3.929l-.072.111-.027.04-.023.033-.022.033-.05.076-.007.011-.007.011a25.118,25.118,0,0,1-3.057,3.7A24.929,24.929,0,0,1,5,240.153Zm-1-238H0V0L4,2.152Z" transform="translate(1762 375.846)" fill="#926e09" style="mix-blend-mode: hard-light;isolation: isolate"/>
    <path id="Intersection_2" data-name="Intersection 2" d="M189.315,289.128,0,189.113V186l16.767-9.028,172.548,91.157a40,40,0,0,0,37.37,0l172.548-91.157L416,186v3.114L226.685,289.128a40,40,0,0,1-37.37,0Z" transform="translate(1376 205)" fill="#0f77ff" opacity="0.12" style="mix-blend-mode: darken;isolation: isolate"/>
  </g>
</svg>
