<svg xmlns="http://www.w3.org/2000/svg" xmlns:xlink="http://www.w3.org/1999/xlink" width="394.501" height="642.096" viewBox="0 0 394.501 642.096">
  <defs>
    <filter id="Path_8" x="0" y="281.203" width="339.054" height="360.893" filterUnits="userSpaceOnUse">
      <feOffset dy="3" input="SourceAlpha"/>
      <feGaussianBlur stdDeviation="3" result="blur"/>
      <feFlood flood-opacity="0.161"/>
      <feComposite operator="in" in2="blur"/>
      <feComposite in="SourceGraphic"/>
    </filter>
  </defs>
  <g id="bd1" transform="translate(-1345.513 -247.5)">
    <g id="diamond" transform="translate(1566.363 484.333) rotate(53)">
      <g transform="matrix(0.6, -0.8, 0.8, 0.6, -322.05, 33.85)" filter="url(#Path_8)">
        <path id="Path_8-2" data-name="Path 8" d="M146.263,200.568,0,19H292.527Z" transform="translate(169.18 275.77) rotate(53)" fill="#2e63cc"/>
      </g>
      <path id="Path_9" data-name="Path 9" d="M292.527,83.7H0L50.436,3H242.091Z" fill="#85aaff"/>
      <path id="Path_10" data-name="Path 10" d="M172.171,83.7,201.655,3H10L39.485,83.7Z" transform="translate(40.436)" fill="#638ff7"/>
      <path id="Path_11" data-name="Path 11" d="M147.133,83.7,81.566,3,16,83.7Z" transform="translate(64.697)" fill="#9ac0f4"/>
      <path id="Path_12" data-name="Path 12" d="M15.846,19,82.189,200.568,148.532,19Z" transform="translate(64.074 64.697)" fill="#467fcb"/>
    </g>
    <line id="Line_1" data-name="Line 1" y1="146" transform="translate(1486.5 354.5)" fill="none" stroke="#9a9a9a" stroke-width="10"/>
    <line id="Line_2" data-name="Line 2" y1="117" x2="2" transform="translate(1659.5 459.5)" fill="none" stroke="#707070" stroke-width="10"/>
    <line id="Line_3" data-name="Line 3" y1="188" transform="translate(1596.5 247.5)" fill="none" stroke="#c6c6c6" stroke-width="10"/>
  </g>
</svg>
